<?xml version="1.0" encoding="UTF-8" standalone="no"?>
<svg
   xmlns:dc="http://purl.org/dc/elements/1.1/"
   xmlns:cc="http://creativecommons.org/ns#"
   xmlns:rdf="http://www.w3.org/1999/02/22-rdf-syntax-ns#"
   xmlns:svg="http://www.w3.org/2000/svg"
   xmlns="http://www.w3.org/2000/svg"
   viewBox="0 0 595.27557 841.88977"
   id="svg6"
   height="841.88977"
   width="595.27557"
   version="1.1">
  <metadata
     id="metadata12">
    <rdf:RDF>
      <cc:Work
         rdf:about="">
        <dc:format>image/svg+xml</dc:format>
        <dc:type
           rdf:resource="http://purl.org/dc/dcmitype/StillImage" />
      </cc:Work>
    </rdf:RDF>
  </metadata>
  <defs
     id="defs10" />
  <path
     id="path2"
     style="fill:red;fill-rule:evenodd"
     d="m 209.2558,104.7209 v 128.5767 l -111.3505,-64.2884 -56.693,98.195 111.3509,64.2883 -111.3509,64.2884 56.693,98.1949 111.3505,-64.2883 V 558.2642 H 322.6416 V 429.6875 l 111.3506,64.2883 56.6929,-98.1949 -111.3508,-64.2884 111.3508,-64.2883 -56.6929,-98.195 -111.3506,64.2884 V 104.7209 Z" />
  <path
     id="path4"
     style="fill:#ffffff;fill-rule:evenodd"
     d="m 259.4044,270.813 c -0.5417,-7.7539 -1.0043,-22.7965 -2.0095,-24.2124 -15.8173,-25.2176 -8.4112,-55.7144 -0.489,-53.2908 5.9179,1.9568 22.5525,5.059 24.9667,-0.4107 l 0.2696,-0.5434 c 0,0 -5.9153,-1.0061 -5.9153,-1.9585 0,-0.9244 4.9127,1.9585 6.9196,0 2.4968,-3.3735 -5.9145,-5.7946 -8.9529,-9.7115 -11.3698,-15.4517 -31.1508,1.4967 -38.5339,10.6639 -11.397,13.955 -8.6307,31.3124 -4.178,43.2553 0.7322,2.0129 8.1944,17.5998 17.2851,27.9108 2.5486,2.7748 10.6376,11.2073 10.6376,8.2973 z m 23.2004,109.4125 v 0 c -1.0051,11.1563 -2.4695,24.7031 -9.879,32.9468 -11.9123,12.7295 -19.7257,24.3459 -16.3624,43.0903 8.9563,46.9545 7.9512,14.5017 7.9512,13.0867 -3.5011,-36.8348 12.3749,-35.3407 26.2414,-60.0931 4.4501,-7.2394 1.9542,-19.8346 -4.9654,-27.1267 z M 257.8575,196.9537 v 0 l 4.9663,111.428 c 0.4864,6.747 19.3184,-17.4637 19.3184,-23.7218 l 1.9534,-94.4532 c -0.4593,13.5485 -26.2381,4.843 -26.2381,6.747 z m 17.8277,-17.1941 v 0 c 2.0069,2.4228 7.9511,4.3813 7.9511,7.2641 v -38.7933 c 0,-15.9687 -24.7736,-17.8727 -25.7788,-0.4617 v 23.2854 c 0,3.8362 9.8765,-2.9092 17.8277,8.7055 z m 3.4449,300.7962 v 0 c 1.33,24.6206 -6.8644,24.7558 -11.3961,32.4544 -1.4652,2.3675 19.7844,-9.7115 15.9023,-27.1225 -0.5425,-1.9567 -4.5062,-8.2972 -4.5062,-5.3319 z m -0.4073,-92.1419 v 0 l 0.9226,-59.1117 c 0,-3.8344 -14.7891,12.6215 -14.7891,20.8389 l 0.9498,65.9149 c 0,4.3242 12.375,-12.5952 12.9167,-27.6421 z m -2.0333,106.0985 v 0 l 1.4916,-63.413 c 0,-1.9601 -10.9072,13.5732 -10.9072,15.9959 l 2.9033,59.9562 c 1.0017,-2.4194 6.0497,-6.2019 6.5123,-12.5391 z m -5.4553,20.458 v 0 l 1.0315,12.539 h 1.4653 l 1.9542,-17.4109 c 0,0 -4.451,3.8378 -4.451,4.8719 z m -7.5141,-333.197 v 0 c 0.7849,0 4.5556,-0.0817 4.5556,-0.87 0,-0.8172 -3.6354,-1.4151 -4.5028,-1.4151 -0.8147,0 -4.9663,0.381 -4.9663,1.1974 0,0.8155 4.0988,1.0877 4.9135,1.0877 z m 21.8705,76.2258 v 0 l -0.4899,26.6607 c 0,13.0867 -32.1559,36.3425 -37.1486,57.1814 -1.4644,6.2844 -1.9542,14.0391 2.9594,26.119 1.0315,2.4193 8.4112,16.9993 11.9123,16.4576 0.4864,-4.7902 0,-21.7905 -1.0052,-26.6326 -3.9611,-23.6954 30.6916,-39.6658 40.1072,-62.9504 5.9153,-14.9635 0.8146,-25.3009 -16.3352,-36.8357 z" />
</svg>
